<svg fill="none" height="512" viewBox="0 0 512 512" width="512" xmlns="http://www.w3.org/2000/svg" xmlns:xlink="http://www.w3.org/1999/xlink"><clipPath id="a"><path d="m0 0h512v512h-512z"/></clipPath><g clip-path="url(#a)"><path d="m0 0h512v512h-512z"/><ellipse cx="256" cy="256" fill="#fff" rx="256" ry="256"/><g fill="#000" rx="0" ry="0"><path d="m239.188 159.683 9.79 19.578h-.003c1.412 2.825 4.299 4.61 7.46 4.61 3.158 0 6.045-1.785 7.457-4.61l9.791-19.578 19.578-9.791-.004.004c2.825-1.413 4.61-4.303 4.61-7.461 0-3.157-1.785-6.044-4.61-7.457l-19.578-9.79-9.79-19.578h.003c-1.412-2.825-4.299-4.61-7.457-4.61-3.161 0-6.048 1.785-7.46 4.61l-9.791 19.578-19.578 9.79h.004c-2.825 1.413-4.61 4.3-4.61 7.457 0 3.158 1.785 6.048 4.61 7.461z" rx="0" ry="0"/><path d="m225.294 370.507c0 11.442-9.274 20.719-20.715 20.719-11.442 0-20.716-9.277-20.716-20.719 0-11.441 9.274-20.715 20.716-20.715 11.441 0 20.715 9.274 20.715 20.715z" rx="0" ry="0"/><path d="m328.88 370.507c0 11.442-9.273 20.719-20.715 20.719s-20.715-9.277-20.715-20.719c0-11.441 9.273-20.715 20.715-20.715s20.715 9.274 20.715 20.715z" rx="0" ry="0"/><path d="m410.136 405.314c3.924-4.035 6.037-9.494 5.853-15.123-3.107-105.187-19.629-140.101-33.614-158.802-7.814-10.452-20.097-16.611-33.147-16.626-6.424 0-12.757 1.506-18.491 4.404-13.62 6.944-26.091 15.939-36.98 26.673-24.679-7.178-50.889-7.178-75.565 0-10.856-10.82-23.31-19.903-36.93-26.933-5.756-2.804-12.089-4.223-18.491-4.144-13.042 0-25.322 6.142-33.147 16.576-14.036 18.696-30.506 53.657-33.614 158.801-.231 7.403 3.505 14.364 9.798 18.266 6.294 3.899 14.192 4.148 20.719.647 6.525-3.501 10.687-10.217 10.919-17.62 3.157-105.658 19.837-127.873 25.325-135.226 1.088.571 27.14 13.725 39.052 36.254h.003c.654 1.254 1.796 2.186 3.154 2.576 1.362.39 2.822.21 4.043-.502 29.13-16.627 64.875-16.627 94.004 0 1.222.712 2.685.892 4.043.502 1.359-.39 2.5-1.322 3.158-2.576 11.911-22.58 37.912-35.738 39.051-36.254 5.491 7.301 22.168 29.524 25.326 135.282.17 5.444 2.478 10.603 6.427 14.36 3.945 3.758 9.212 5.806 14.661 5.709 5.448-.102 10.636-2.345 14.443-6.244z" rx="0" ry="0"/></g></g></svg>